# WaveFront *.obj file (generated by Autodesk ATF)

mtllib cbc9b1dd-900f-42ad-98c4-c2d066b41669.mtl

g Body1

v 6.973033 0.000000 0.457254
v 6.973033 0.000000 0.780007
v 6.973033 0.150000 0.780007
v 6.973033 0.150000 0.457254
v 6.748911 0.000000 0.780007
v 6.748911 0.150000 0.780007
v 6.973033 0.000000 0.860574
v 6.973033 0.000000 1.031961
v 6.973033 0.150000 1.031961
v 6.973033 0.150000 0.860574
v 6.662486 0.000000 0.860574
v 6.662486 0.150000 0.860574
v 6.662486 0.000000 0.780007
v 6.662486 0.150000 0.780007
v 6.989146 0.000000 0.316140
v 6.989146 0.150000 0.316140
v 7.060923 0.000000 0.316140
v 7.060923 0.150000 0.316140
v 7.060923 0.000000 0.780007
v 7.060923 0.150000 0.780007
v 7.157603 0.000000 0.780007
v 7.157603 0.150000 0.780007
v 7.157603 0.000000 0.860574
v 7.157603 0.150000 0.860574
v 7.060923 0.000000 0.860574
v 7.060923 0.150000 0.860574
v 7.060923 0.000000 1.031961
v 7.060923 0.150000 1.031961
vt 0.000000 0.000000 0.000000
vt 0.322754 0.000000 0.000000
vt 0.000000 0.150000 0.000000
vt 0.322754 0.150000 0.000000
vt -0.000000 0.000000 0.000000
vt 0.392938 0.000000 0.000000
vt -0.000000 0.150000 0.000000
vt 0.392938 0.150000 0.000000
vt -0.000000 0.000000 0.000000
vt 0.224121 0.000000 0.000000
vt -0.000000 0.150000 0.000000
vt 0.224121 0.150000 0.000000
vt 0.000000 0.000000 0.000000
vt 0.171387 0.000000 0.000000
vt 0.000000 0.150000 0.000000
vt 0.171387 0.150000 0.000000
vt 0.000000 0.000000 0.000000
vt 0.310547 0.000000 0.000000
vt 0.000000 0.150000 0.000000
vt 0.310547 0.150000 0.000000
vt 0.000000 0.000000 0.000000
vt 0.080566 0.000000 0.000000
vt 0.000000 0.150000 0.000000
vt 0.080566 0.150000 0.000000
vt 0.000000 0.000000 0.000000
vt 0.567344 0.000000 0.000000
vt 0.000000 0.150000 0.000000
vt 0.567344 0.150000 0.000000
vt -0.000000 0.000000 0.000000
vt 0.071777 0.000000 0.000000
vt -0.000000 0.150000 0.000000
vt 0.071777 0.150000 0.000000
vt -0.000000 0.000000 0.000000
vt 0.463867 0.000000 0.000000
vt -0.000000 0.150000 0.000000
vt 0.463867 0.150000 0.000000
vt -0.000000 0.000000 0.000000
vt 0.096680 0.000000 0.000000
vt -0.000000 0.150000 0.000000
vt 0.096680 0.150000 0.000000
vt -0.000000 0.000000 0.000000
vt 0.080566 0.000000 0.000000
vt -0.000000 0.150000 0.000000
vt 0.080566 0.150000 0.000000
vt 0.000000 0.000000 0.000000
vt 0.096680 0.000000 0.000000
vt 0.000000 0.150000 0.000000
vt 0.096680 0.150000 0.000000
vt -0.000000 0.000000 0.000000
vt 0.171387 0.000000 0.000000
vt -0.000000 0.150000 0.000000
vt 0.171387 0.150000 0.000000
vt 0.000000 0.000000 0.000000
vt 0.087891 0.000000 0.000000
vt 0.000000 0.150000 0.000000
vt 0.087891 0.150000 0.000000
vt 0.357910 0.150879 0.000000
vt 0.186523 0.150879 0.000000
vt 0.357910 0.062988 0.000000
vt 0.186523 0.062988 0.000000
vt 0.105957 0.150879 0.000000
vt 0.105957 0.062988 0.000000
vt -0.216797 0.062988 0.000000
vt -0.357910 0.150879 0.000000
vt -0.357910 0.079102 0.000000
vt 0.186523 0.247559 0.000000
vt 0.105957 0.247559 0.000000
vt 0.105957 -0.247559 0.000000
vt 0.105957 -0.161133 0.000000
vt 0.186523 -0.247559 0.000000
vt -0.150879 -0.357910 0.000000
vt -0.062988 -0.357910 0.000000
vt -0.150879 -0.186523 0.000000
vt -0.062988 -0.186523 0.000000
vt -0.150879 -0.105957 0.000000
vt -0.062988 -0.105957 0.000000
vt -0.062988 0.216797 0.000000
vt 0.161133 -0.105957 0.000000
vt 0.247559 -0.186523 0.000000
vt 0.247559 -0.105957 0.000000
vt -0.079102 0.357910 0.000000
vt -0.150879 0.357910 0.000000
vt -0.247559 -0.105957 0.000000
vt -0.247559 -0.186523 0.000000
vn -1.000000 0.000000 0.000000
vn -1.000000 0.000000 0.000000
vn -1.000000 0.000000 0.000000
vn -1.000000 0.000000 0.000000
vn 0.821386 -0.000000 0.570373
vn 0.821386 -0.000000 0.570373
vn 0.821386 -0.000000 0.570373
vn 0.821386 -0.000000 0.570373
vn 0.000000 0.000000 -1.000000
vn 0.000000 0.000000 -1.000000
vn 0.000000 0.000000 -1.000000
vn 0.000000 0.000000 -1.000000
vn -1.000000 0.000000 0.000000
vn -1.000000 0.000000 0.000000
vn -1.000000 0.000000 0.000000
vn -1.000000 0.000000 0.000000
vn 0.000000 -0.000000 1.000000
vn 0.000000 -0.000000 1.000000
vn 0.000000 -0.000000 1.000000
vn 0.000000 -0.000000 1.000000
vn -1.000000 0.000000 0.000000
vn -1.000000 0.000000 0.000000
vn -1.000000 0.000000 0.000000
vn -1.000000 0.000000 0.000000
vn -0.817611 0.000000 -0.575771
vn -0.817611 0.000000 -0.575771
vn -0.817611 0.000000 -0.575771
vn -0.817611 0.000000 -0.575771
vn 0.000000 0.000000 -1.000000
vn 0.000000 0.000000 -1.000000
vn 0.000000 0.000000 -1.000000
vn 0.000000 0.000000 -1.000000
vn 1.000000 0.000000 0.000000
vn 1.000000 0.000000 0.000000
vn 1.000000 0.000000 0.000000
vn 1.000000 0.000000 0.000000
vn 0.000000 0.000000 -1.000000
vn 0.000000 0.000000 -1.000000
vn 0.000000 0.000000 -1.000000
vn 0.000000 0.000000 -1.000000
vn 1.000000 0.000000 0.000000
vn 1.000000 0.000000 0.000000
vn 1.000000 0.000000 0.000000
vn 1.000000 0.000000 0.000000
vn 0.000000 -0.000000 1.000000
vn 0.000000 -0.000000 1.000000
vn 0.000000 -0.000000 1.000000
vn 0.000000 -0.000000 1.000000
vn 1.000000 0.000000 0.000000
vn 1.000000 0.000000 0.000000
vn 1.000000 0.000000 0.000000
vn 1.000000 0.000000 0.000000
vn 0.000000 -0.000000 1.000000
vn 0.000000 -0.000000 1.000000
vn 0.000000 -0.000000 1.000000
vn 0.000000 -0.000000 1.000000
vn 0.000000 1.000000 0.000000
vn 0.000000 1.000000 0.000000
vn 0.000000 1.000000 0.000000
vn 0.000000 1.000000 0.000000
vn 0.000000 1.000000 0.000000
vn 0.000000 1.000000 0.000000
vn 0.000000 1.000000 0.000000
vn 0.000000 1.000000 0.000000
vn 0.000000 1.000000 0.000000
vn 0.000000 1.000000 0.000000
vn 0.000000 1.000000 0.000000
vn 0.000000 1.000000 0.000000
vn 0.000000 1.000000 0.000000
vn 0.000000 1.000000 0.000000
vn -0.000000 -1.000000 -0.000000
vn -0.000000 -1.000000 -0.000000
vn -0.000000 -1.000000 -0.000000
vn -0.000000 -1.000000 -0.000000
vn -0.000000 -1.000000 -0.000000
vn -0.000000 -1.000000 -0.000000
vn -0.000000 -1.000000 -0.000000
vn -0.000000 -1.000000 -0.000000
vn -0.000000 -1.000000 -0.000000
vn -0.000000 -1.000000 -0.000000
vn -0.000000 -1.000000 -0.000000
vn -0.000000 -1.000000 -0.000000
vn -0.000000 -1.000000 -0.000000
vn -0.000000 -1.000000 -0.000000
usemtl Steel_-_Satin
f 1/1/1 2/2/2 4/3/3
f 4/3/3 2/2/2 3/4/4
f 5/5/5 1/6/6 6/7/7
f 6/7/7 1/6/6 4/8/8
f 2/9/9 5/10/10 3/11/11
f 3/11/11 5/10/10 6/12/12
f 7/13/13 8/14/14 10/15/15
f 10/15/15 8/14/14 9/16/16
f 11/17/17 7/18/18 12/19/19
f 12/19/19 7/18/18 10/20/20
f 13/21/21 11/22/22 14/23/23
f 14/23/23 11/22/22 12/24/24
f 15/25/25 13/26/26 16/27/27
f 16/27/27 13/26/26 14/28/28
f 17/29/29 15/30/30 18/31/31
f 18/31/31 15/30/30 16/32/32
f 19/33/33 17/34/34 20/35/35
f 20/35/35 17/34/34 18/36/36
f 21/37/37 19/38/38 22/39/39
f 22/39/39 19/38/38 20/40/40
f 23/41/41 21/42/42 24/43/43
f 24/43/43 21/42/42 22/44/44
f 25/45/45 23/46/46 26/47/47
f 26/47/47 23/46/46 24/48/48
f 27/49/49 25/50/50 28/51/51
f 28/51/51 25/50/50 26/52/52
f 8/53/53 27/54/54 9/55/55
f 9/55/55 27/54/54 28/56/56
f 28/57/57 26/58/58 9/59/59
f 9/59/59 26/58/58 10/60/60
f 10/60/60 26/58/58 20/61/61
f 10/60/60 20/61/61 3/62/62
f 3/62/62 20/61/61 4/63/63
f 4/63/63 20/61/61 18/64/64
f 4/63/63 18/64/64 16/65/65
f 24/66/66 22/67/67 26/58/58
f 26/58/58 22/67/67 20/61/61
f 16/65/65 14/68/68 4/63/63
f 4/63/63 14/68/68 6/69/69
f 6/69/69 14/68/68 12/70/70
f 6/69/69 12/70/70 10/60/60
f 3/62/62 6/69/69 10/60/60
f 27/71/71 8/72/72 25/73/73
f 25/73/73 8/72/72 7/74/74
f 25/73/73 7/74/74 19/75/75
f 19/75/75 7/74/74 2/76/76
f 19/75/75 2/76/76 1/77/77
f 2/76/76 7/74/74 5/78/78
f 5/78/78 7/74/74 11/79/79
f 5/78/78 11/79/79 13/80/80
f 5/78/78 13/80/80 1/77/77
f 1/77/77 13/80/80 15/81/81
f 1/77/77 15/81/81 17/82/82
f 17/82/82 19/75/75 1/77/77
f 19/75/75 21/83/83 25/73/73
f 25/73/73 21/83/83 23/84/84

# 28 vertices
# 84 texture params
# 84 normals
# 56 facets

# 1 groups
