# WaveFront *.obj file (generated by Autodesk ATF)

mtllib bd55e71a-e544-4978-af0c-653960a05ffd.mtl

g Body1

v 5.032038 0.000000 1.645304
v 5.032038 0.000000 1.729777
v 5.032038 0.150000 1.729777
v 5.032038 0.150000 1.645304
v 5.495417 0.000000 1.645304
v 5.495417 0.150000 1.645304
v 5.495417 0.000000 1.713664
v 5.495417 0.150000 1.713664
v 5.359674 0.000000 1.907023
v 5.389708 0.000000 1.855915
v 5.421755 0.000000 1.806236
v 5.457402 0.000000 1.759110
v 5.457402 0.150000 1.759110
v 5.421755 0.150000 1.806236
v 5.389708 0.150000 1.855915
v 5.359674 0.150000 1.907023
v 5.256159 0.000000 2.155070
v 5.277174 0.000000 2.091032
v 5.300861 0.000000 2.028107
v 5.328958 0.000000 1.967019
v 5.328958 0.150000 1.967019
v 5.300861 0.150000 2.028107
v 5.277174 0.150000 2.091032
v 5.256159 0.150000 2.155070
v 5.222467 0.000000 2.351847
v 5.227253 0.000000 2.302023
v 5.233976 0.000000 2.252534
v 5.244031 0.000000 2.203623
v 5.244031 0.150000 2.203623
v 5.233976 0.150000 2.252534
v 5.227253 0.150000 2.302023
v 5.222467 0.150000 2.351847
v 5.132135 0.000000 2.351847
v 5.132135 0.150000 2.351847
v 5.165338 0.000000 2.147746
v 5.152996 0.000000 2.198137
v 5.142721 0.000000 2.248853
v 5.136179 0.000000 2.300154
v 5.136179 0.150000 2.300154
v 5.142721 0.150000 2.248853
v 5.152996 0.150000 2.198137
v 5.165338 0.150000 2.147746
v 5.256159 0.000000 1.917277
v 5.228875 0.000000 1.973091
v 5.204081 0.000000 2.029886
v 5.183455 0.000000 2.088321
v 5.183455 0.150000 2.088321
v 5.204081 0.150000 2.029886
v 5.228875 0.150000 1.973091
v 5.256159 0.150000 1.917277
v 5.382624 0.000000 1.729777
v 5.347283 0.000000 1.774123
v 5.314061 0.000000 1.819907
v 5.284161 0.000000 1.867948
v 5.284161 0.150000 1.867948
v 5.314061 0.150000 1.819907
v 5.347283 0.150000 1.774123
v 5.382624 0.150000 1.729777
vt 0.000000 0.000000 0.000000
vt 0.084473 0.000000 0.000000
vt 0.000000 0.150000 0.000000
vt 0.084473 0.150000 0.000000
vt -0.000000 0.000000 0.000000
vt 0.463379 0.000000 0.000000
vt -0.000000 0.150000 0.000000
vt 0.463379 0.150000 0.000000
vt -0.000000 0.000000 0.000000
vt 0.068359 0.000000 0.000000
vt -0.000000 0.150000 0.000000
vt 0.068359 0.150000 0.000000
vt -0.236257 0.000000 0.000000
vt -0.177192 0.000000 0.000000
vt -0.236257 0.150000 0.000000
vt -0.177192 0.150000 0.000000
vt -0.118128 0.000000 0.000000
vt -0.118128 0.150000 0.000000
vt -0.059064 0.000000 0.000000
vt -0.059064 0.150000 0.000000
vt 0.000000 0.000000 0.000000
vt 0.000000 0.150000 0.000000
vt -0.268780 0.000000 0.000000
vt -0.201585 0.000000 0.000000
vt -0.268780 0.150000 0.000000
vt -0.201585 0.150000 0.000000
vt -0.134390 0.000000 0.000000
vt -0.134390 0.150000 0.000000
vt -0.067195 0.000000 0.000000
vt -0.067195 0.150000 0.000000
vt 0.000000 0.000000 0.000000
vt 0.000000 0.150000 0.000000
vt -0.199642 0.000000 0.000000
vt -0.149731 0.000000 0.000000
vt -0.199642 0.150000 0.000000
vt -0.149731 0.150000 0.000000
vt -0.099821 0.000000 0.000000
vt -0.099821 0.150000 0.000000
vt -0.049910 0.000000 0.000000
vt -0.049910 0.150000 0.000000
vt 0.000000 0.000000 0.000000
vt 0.000000 0.150000 0.000000
vt 0.000000 0.000000 0.000000
vt 0.090332 0.000000 0.000000
vt 0.000000 0.150000 0.000000
vt 0.090332 0.150000 0.000000
vt -0.206793 0.000000 0.000000
vt -0.155095 0.000000 0.000000
vt -0.206793 0.150000 0.000000
vt -0.155095 0.150000 0.000000
vt -0.103396 0.000000 0.000000
vt -0.103396 0.150000 0.000000
vt -0.051698 0.000000 0.000000
vt -0.051698 0.150000 0.000000
vt 0.000000 0.000000 0.000000
vt 0.000000 0.150000 0.000000
vt -0.247718 0.000000 0.000000
vt -0.185788 0.000000 0.000000
vt -0.247718 0.150000 0.000000
vt -0.185788 0.150000 0.000000
vt -0.123859 0.000000 0.000000
vt -0.123859 0.150000 0.000000
vt -0.061929 0.000000 0.000000
vt -0.061929 0.150000 0.000000
vt 0.000000 0.000000 0.000000
vt 0.000000 0.150000 0.000000
vt -0.226166 0.000000 0.000000
vt -0.169624 0.000000 0.000000
vt -0.226166 0.150000 0.000000
vt -0.169624 0.150000 0.000000
vt -0.113083 0.000000 0.000000
vt -0.113083 0.150000 0.000000
vt -0.056541 0.000000 0.000000
vt -0.056541 0.150000 0.000000
vt 0.000000 0.000000 0.000000
vt 0.000000 0.150000 0.000000
vt 0.000000 0.000000 0.000000
vt 0.350586 0.000000 0.000000
vt 0.000000 0.150000 0.000000
vt 0.350586 0.150000 0.000000
vt -0.231689 0.268799 0.000000
vt 0.118896 0.268799 0.000000
vt -0.231689 0.353271 0.000000
vt 0.231689 0.353271 0.000000
vt 0.231689 0.284912 0.000000
vt 0.193675 0.239466 0.000000
vt 0.158028 0.192340 0.000000
vt 0.083556 0.224453 0.000000
vt 0.125981 0.142661 0.000000
vt 0.050334 0.178668 0.000000
vt 0.095947 0.091553 0.000000
vt 0.020434 0.130628 0.000000
vt 0.065231 0.031557 0.000000
vt -0.007568 0.081299 0.000000
vt -0.034852 0.025485 0.000000
vt 0.037134 -0.029531 0.000000
vt -0.059646 -0.031310 0.000000
vt 0.013447 -0.092456 0.000000
vt -0.080272 -0.089746 0.000000
vt -0.007568 -0.156494 0.000000
vt -0.098389 -0.149170 0.000000
vt -0.019696 -0.205047 0.000000
vt -0.110731 -0.199561 0.000000
vt -0.029751 -0.253959 0.000000
vt -0.121006 -0.250277 0.000000
vt -0.036474 -0.303448 0.000000
vt -0.127548 -0.301578 0.000000
vt -0.041260 -0.353271 0.000000
vt -0.131592 -0.353271 0.000000
vt 0.231689 0.268799 0.000000
vt 0.231689 0.353271 0.000000
vt -0.118896 0.268799 0.000000
vt -0.231689 0.353271 0.000000
vt -0.231689 0.284912 0.000000
vt -0.193675 0.239466 0.000000
vt -0.158028 0.192340 0.000000
vt -0.083556 0.224453 0.000000
vt -0.125981 0.142661 0.000000
vt -0.050334 0.178668 0.000000
vt -0.095947 0.091553 0.000000
vt -0.020434 0.130628 0.000000
vt -0.065231 0.031557 0.000000
vt 0.007568 0.081299 0.000000
vt 0.034852 0.025485 0.000000
vt -0.037134 -0.029531 0.000000
vt 0.059646 -0.031310 0.000000
vt -0.013447 -0.092456 0.000000
vt 0.080272 -0.089746 0.000000
vt 0.007568 -0.156494 0.000000
vt 0.098389 -0.149170 0.000000
vt 0.019696 -0.205047 0.000000
vt 0.110731 -0.199561 0.000000
vt 0.029751 -0.253959 0.000000
vt 0.121006 -0.250277 0.000000
vt 0.036474 -0.303448 0.000000
vt 0.127548 -0.301578 0.000000
vt 0.041260 -0.353271 0.000000
vt 0.131592 -0.353271 0.000000
vn -1.000000 0.000000 0.000000
vn -1.000000 0.000000 0.000000
vn -1.000000 0.000000 0.000000
vn -1.000000 0.000000 0.000000
vn 0.000000 0.000000 -1.000000
vn 0.000000 0.000000 -1.000000
vn 0.000000 0.000000 -1.000000
vn 0.000000 0.000000 -1.000000
vn 1.000000 0.000000 0.000000
vn 1.000000 0.000000 0.000000
vn 1.000000 0.000000 0.000000
vn 1.000000 0.000000 0.000000
vn 0.865636 -0.000000 0.500675
vn 0.855055 -0.000000 0.518538
vn 0.865636 -0.000000 0.500675
vn 0.855055 -0.000000 0.518538
vn 0.820948 -0.000000 0.571003
vn 0.820948 -0.000000 0.571003
vn 0.777408 -0.000000 0.628997
vn 0.777408 -0.000000 0.628997
vn 0.761786 -0.000000 0.647828
vn 0.761786 -0.000000 0.647828
vn 0.952346 -0.000000 0.305019
vn 0.945594 -0.000000 0.325350
vn 0.952346 -0.000000 0.305019
vn 0.945594 -0.000000 0.325350
vn 0.922648 -0.000000 0.385644
vn 0.922648 -0.000000 0.385644
vn 0.896419 -0.000000 0.443207
vn 0.896419 -0.000000 0.443207
vn 0.886915 -0.000000 0.461933
vn 0.886915 -0.000000 0.461933
vn 0.996021 -0.000000 0.089120
vn 0.994084 -0.000000 0.108610
vn 0.996021 -0.000000 0.089120
vn 0.994084 -0.000000 0.108610
vn 0.985952 -0.000000 0.167028
vn 0.985952 -0.000000 0.167028
vn 0.973486 -0.000000 0.228747
vn 0.973486 -0.000000 0.228747
vn 0.968474 -0.000000 0.249114
vn 0.968474 -0.000000 0.249114
vn 0.000000 -0.000000 1.000000
vn 0.000000 -0.000000 1.000000
vn 0.000000 -0.000000 1.000000
vn 0.000000 -0.000000 1.000000
vn -0.969674 0.000000 -0.244403
vn -0.974393 0.000000 -0.224852
vn -0.969674 0.000000 -0.244403
vn -0.974393 0.000000 -0.224852
vn -0.986226 0.000000 -0.165404
vn -0.986226 0.000000 -0.165404
vn -0.995554 0.000000 -0.094189
vn -0.995554 0.000000 -0.094189
vn -0.997555 0.000000 -0.069891
vn -0.997555 0.000000 -0.069891
vn -0.895236 0.000000 -0.445593
vn -0.904604 0.000000 -0.426253
vn -0.895236 0.000000 -0.445593
vn -0.904604 0.000000 -0.426253
vn -0.930289 0.000000 -0.366827
vn -0.930289 0.000000 -0.366827
vn -0.952223 0.000000 -0.305403
vn -0.952223 0.000000 -0.305403
vn -0.958612 0.000000 -0.284717
vn -0.958612 0.000000 -0.284717
vn -0.777347 0.000000 -0.629072
vn -0.791320 0.000000 -0.611403
vn -0.777347 0.000000 -0.629072
vn -0.791320 0.000000 -0.611403
vn -0.830668 0.000000 -0.556767
vn -0.830668 0.000000 -0.556767
vn -0.862931 0.000000 -0.505322
vn -0.862931 0.000000 -0.505322
vn -0.872941 0.000000 -0.487825
vn -0.872941 0.000000 -0.487825
vn 0.000000 -0.000000 1.000000
vn 0.000000 -0.000000 1.000000
vn 0.000000 -0.000000 1.000000
vn 0.000000 -0.000000 1.000000
vn 0.000000 1.000000 0.000000
vn 0.000000 1.000000 0.000000
vn 0.000000 1.000000 0.000000
vn 0.000000 1.000000 0.000000
vn 0.000000 1.000000 0.000000
vn 0.000000 1.000000 0.000000
vn 0.000000 1.000000 0.000000
vn 0.000000 1.000000 0.000000
vn 0.000000 1.000000 0.000000
vn 0.000000 1.000000 0.000000
vn 0.000000 1.000000 0.000000
vn 0.000000 1.000000 0.000000
vn 0.000000 1.000000 0.000000
vn 0.000000 1.000000 0.000000
vn 0.000000 1.000000 0.000000
vn 0.000000 1.000000 0.000000
vn 0.000000 1.000000 0.000000
vn 0.000000 1.000000 0.000000
vn 0.000000 1.000000 0.000000
vn 0.000000 1.000000 0.000000
vn 0.000000 1.000000 0.000000
vn 0.000000 1.000000 0.000000
vn 0.000000 1.000000 0.000000
vn 0.000000 1.000000 0.000000
vn 0.000000 1.000000 0.000000
vn 0.000000 1.000000 0.000000
vn 0.000000 1.000000 0.000000
vn 0.000000 1.000000 0.000000
vn 0.000000 1.000000 0.000000
vn -0.000000 -1.000000 -0.000000
vn -0.000000 -1.000000 -0.000000
vn -0.000000 -1.000000 -0.000000
vn -0.000000 -1.000000 -0.000000
vn -0.000000 -1.000000 -0.000000
vn -0.000000 -1.000000 -0.000000
vn -0.000000 -1.000000 -0.000000
vn -0.000000 -1.000000 -0.000000
vn -0.000000 -1.000000 -0.000000
vn -0.000000 -1.000000 -0.000000
vn -0.000000 -1.000000 -0.000000
vn -0.000000 -1.000000 -0.000000
vn -0.000000 -1.000000 -0.000000
vn -0.000000 -1.000000 -0.000000
vn -0.000000 -1.000000 -0.000000
vn -0.000000 -1.000000 -0.000000
vn -0.000000 -1.000000 -0.000000
vn -0.000000 -1.000000 -0.000000
vn -0.000000 -1.000000 -0.000000
vn -0.000000 -1.000000 -0.000000
vn -0.000000 -1.000000 -0.000000
vn -0.000000 -1.000000 -0.000000
vn -0.000000 -1.000000 -0.000000
vn -0.000000 -1.000000 -0.000000
vn -0.000000 -1.000000 -0.000000
vn -0.000000 -1.000000 -0.000000
vn -0.000000 -1.000000 -0.000000
vn -0.000000 -1.000000 -0.000000
vn -0.000000 -1.000000 -0.000000
usemtl Steel_-_Satin
f 1/1/1 2/2/2 4/3/3
f 4/3/3 2/2/2 3/4/4
f 5/5/5 1/6/6 6/7/7
f 6/7/7 1/6/6 4/8/8
f 7/9/9 5/10/10 8/11/11
f 8/11/11 5/10/10 6/12/12
f 9/13/13 10/14/14 16/15/15
f 16/15/15 10/14/14 15/16/16
f 15/16/16 10/14/14 11/17/17
f 15/16/16 11/17/17 14/18/18
f 14/18/18 11/17/17 12/19/19
f 14/18/18 12/19/19 13/20/20
f 13/20/20 12/19/19 7/21/21
f 13/20/20 7/21/21 8/22/22
f 17/23/23 18/24/24 24/25/25
f 24/25/25 18/24/24 23/26/26
f 23/26/26 18/24/24 19/27/27
f 23/26/26 19/27/27 22/28/28
f 22/28/28 19/27/27 20/29/29
f 22/28/28 20/29/29 21/30/30
f 21/30/30 20/29/29 9/31/31
f 21/30/30 9/31/31 16/32/32
f 25/33/33 26/34/34 32/35/35
f 32/35/35 26/34/34 31/36/36
f 31/36/36 26/34/34 27/37/37
f 31/36/36 27/37/37 30/38/38
f 30/38/38 27/37/37 28/39/39
f 30/38/38 28/39/39 29/40/40
f 29/40/40 28/39/39 17/41/41
f 29/40/40 17/41/41 24/42/42
f 33/43/43 25/44/44 34/45/45
f 34/45/45 25/44/44 32/46/46
f 35/47/47 36/48/48 42/49/49
f 42/49/49 36/48/48 41/50/50
f 41/50/50 36/48/48 37/51/51
f 41/50/50 37/51/51 40/52/52
f 40/52/52 37/51/51 38/53/53
f 40/52/52 38/53/53 39/54/54
f 39/54/54 38/53/53 33/55/55
f 39/54/54 33/55/55 34/56/56
f 43/57/57 44/58/58 50/59/59
f 50/59/59 44/58/58 49/60/60
f 49/60/60 44/58/58 45/61/61
f 49/60/60 45/61/61 48/62/62
f 48/62/62 45/61/61 46/63/63
f 48/62/62 46/63/63 47/64/64
f 47/64/64 46/63/63 35/65/65
f 47/64/64 35/65/65 42/66/66
f 51/67/67 52/68/68 58/69/69
f 58/69/69 52/68/68 57/70/70
f 57/70/70 52/68/68 53/71/71
f 57/70/70 53/71/71 56/72/72
f 56/72/72 53/71/71 54/73/73
f 56/72/72 54/73/73 55/74/74
f 55/74/74 54/73/73 43/75/75
f 55/74/74 43/75/75 50/76/76
f 2/77/77 51/78/78 3/79/79
f 3/79/79 51/78/78 58/80/80
f 3/81/81 58/82/82 4/83/83
f 4/83/83 58/82/82 6/84/84
f 6/84/84 58/82/82 8/85/85
f 8/85/85 58/82/82 13/86/86
f 13/86/86 58/82/82 14/87/87
f 14/87/87 58/82/82 57/88/88
f 14/87/87 57/88/88 15/89/89
f 15/89/89 57/88/88 56/90/90
f 15/89/89 56/90/90 16/91/91
f 16/91/91 56/90/90 55/92/92
f 16/91/91 55/92/92 21/93/93
f 21/93/93 55/92/92 50/94/94
f 21/93/93 50/94/94 49/95/95
f 21/93/93 49/95/95 22/96/96
f 22/96/96 49/95/95 48/97/97
f 22/96/96 48/97/97 23/98/98
f 23/98/98 48/97/97 47/99/99
f 23/98/98 47/99/99 24/100/100
f 24/100/100 47/99/99 42/101/101
f 24/100/100 42/101/101 29/102/102
f 29/102/102 42/101/101 41/103/103
f 29/102/102 41/103/103 30/104/104
f 30/104/104 41/103/103 40/105/105
f 30/104/104 40/105/105 31/106/106
f 31/106/106 40/105/105 39/107/107
f 31/106/106 39/107/107 32/108/108
f 32/108/108 39/107/107 34/109/109
f 2/110/110 1/111/111 51/112/112
f 51/112/112 1/111/111 5/113/113
f 51/112/112 5/113/113 7/114/114
f 7/114/114 12/115/115 51/112/112
f 51/112/112 12/115/115 11/116/116
f 51/112/112 11/116/116 52/117/117
f 52/117/117 11/116/116 10/118/118
f 52/117/117 10/118/118 53/119/119
f 53/119/119 10/118/118 9/120/120
f 53/119/119 9/120/120 54/121/121
f 54/121/121 9/120/120 20/122/122
f 54/121/121 20/122/122 43/123/123
f 43/123/123 20/122/122 44/124/124
f 44/124/124 20/122/122 19/125/125
f 44/124/124 19/125/125 45/126/126
f 45/126/126 19/125/125 18/127/127
f 45/126/126 18/127/127 46/128/128
f 46/128/128 18/127/127 17/129/129
f 46/128/128 17/129/129 35/130/130
f 35/130/130 17/129/129 28/131/131
f 35/130/130 28/131/131 36/132/132
f 36/132/132 28/131/131 27/133/133
f 36/132/132 27/133/133 37/134/134
f 37/134/134 27/133/133 26/135/135
f 37/134/134 26/135/135 38/136/136
f 38/136/136 26/135/135 25/137/137
f 38/136/136 25/137/137 33/138/138

# 58 vertices
# 138 texture params
# 138 normals
# 112 facets

# 1 groups
